<svg width="110" height="29" viewBox="0 0 110 29" fill="white"
    xmlns="http://www.w3.org/2000/svg">
    <path d="M106.121 4.40661C103.534 2.04911 99.8231 0.870438 94.9871 0.870585H85.4045V26.9795L74.0801 0.870585H68.2219L57.5081 25.5719C56.4337 24.0715 55.1109 22.2202 53.5399 20.0178C51.0315 16.5017 49.3118 14.0993 48.3807 12.8108L59.1655 0.870585H51.6777L41.4364 11.9605V0.870585H35.3842V27.8815H41.4364V20.2301L44.1513 17.2165L52.1051 27.8815H62.9467L65.4676 22.0466H76.8344L79.3566 27.8815H94.677C99.8492 27.8815 103.696 26.658 106.218 24.2109C108.739 21.7636 110 18.4403 110 14.2408C110 10.0417 108.707 6.76367 106.121 4.40661ZM67.7568 16.7527L71.1712 8.90807L74.5465 16.7527H67.7568ZM101.679 20.4622C100.191 21.8534 98.0641 22.5489 95.2972 22.5488H91.4571V6.12566H94.8321C97.909 6.12566 100.191 6.8406 101.679 8.27049C103.166 9.70051 103.909 11.7421 103.91 14.3952C103.91 17.0487 103.166 19.071 101.679 20.4622Z"/>
    <path d="M25.618 15.7864C25.618 17.9507 25.1202 19.6574 24.1247 20.9065C23.1282 22.1566 21.7769 22.7814 20.0707 22.7808C18.364 22.7808 17.0059 22.1561 15.9964 20.9065C14.9886 19.6572 14.4844 17.9505 14.4837 15.7864V6.12221L9.49295 0.870585L0 0.848145L2.64737 3.48518L0 6.12221H14.4837L8.43236 7.36979V15.9797C8.43236 19.8699 9.52485 22.8711 11.7098 24.9835C13.8956 27.096 16.6825 28.1521 20.0707 28.152C23.4587 28.152 26.2389 27.1023 28.4113 25.0029C30.5836 22.9034 31.6696 19.8956 31.6693 15.9797V0.870585L25.618 0.848145V15.7864Z"/>
</svg>
